# xmcd CD database file
#
# Track frame offsets:
#	159
#	16393
#	30627
#	42316
#	55828
#	71023
#	86526
#	104306
#	119760
#	137640
#
# Disc length: 2032 seconds
#
# Revision: 0
# Processed by: cddbd v1.5.1PL2 Copyright (c) Steve Scherf et al.
# Submitted via: CDex 1.51
#
DISCID=8707ee0a
DTITLE=Charles King - Tucson Nights
DYEAR=2004
DGENRE=New Age
TTITLE0=Buleria
TTITLE1=Rosewood
TTITLE2=Neustadt Tango
TTITLE3=Tucson Nights
TTITLE4=Desert Winter
TTITLE5=Milonga
TTITLE6=Movin On
TTITLE7=Rumba
TTITLE8=New Beat
TTITLE9=Tango One
EXTD=YEAR: 2004
EXTT0=
EXTT1=
EXTT2=
EXTT3=
EXTT4=
EXTT5=
EXTT6=
EXTT7=
EXTT8=
EXTT9=
PLAYORDER=
